<svg width="251" height="48" viewBox="0 0 251 48" fill="none" xmlns="http://www.w3.org/2000/svg">
<rect y="0.0910034" width="121.607" height="47" rx="23.5" fill="black"/>
<path d="M203.325 29.5164L203.325 29.5168C205.204 30.4736 207.263 30.9513 209.5 30.9513C211.737 30.9513 213.785 30.4736 215.642 29.5164C217.499 28.5592 218.973 27.2259 220.061 25.5174L220.062 25.5167C221.151 23.7856 221.695 21.8461 221.695 19.7023C221.695 17.5587 221.151 15.6294 220.062 13.9186C218.995 12.2094 217.521 10.8759 215.642 9.91886C213.785 8.96171 211.737 8.48409 209.5 8.48409C207.263 8.48409 205.204 8.96176 203.325 9.91863L203.325 9.91897C201.468 10.8761 199.983 12.209 198.872 13.9168L198.872 13.9168L198.872 13.918C197.782 15.629 197.238 17.5585 197.238 19.7023C197.238 21.8461 197.782 23.7856 198.871 25.5167L198.871 25.5167L198.872 25.5185C199.983 27.2264 201.468 28.5593 203.325 29.5164ZM213.89 24.1596L213.889 24.1607C212.803 25.2776 211.346 25.8417 209.5 25.8417C207.631 25.8417 206.151 25.2874 205.044 24.1905C203.958 23.0728 203.409 21.5821 203.409 19.7023C203.409 17.801 203.959 16.311 205.043 15.2145C206.151 14.1173 207.631 13.5628 209.5 13.5628C211.346 13.5628 212.803 14.1269 213.889 15.2439L213.889 15.2439L213.891 15.2459C214.998 16.3429 215.557 17.8226 215.557 19.7023C215.557 21.5608 214.998 23.0414 213.89 24.1596Z" fill="black" stroke="black" stroke-width="0.3"/>
<path d="M197.765 26.5158V26.3658H197.615H190.25V8.94232V8.79232H190.1H184.362H184.212V8.94232V30.5854V30.7354H184.362H197.615H197.765V30.5854V26.5158Z" fill="black" stroke="black" stroke-width="0.3"/>
<path d="M182.279 26.5158V26.3658H182.129H174.763V8.94232V8.79232H174.613H168.876H168.726V8.94232V30.5854V30.7354H168.876H182.129H182.279V30.5854V26.5158Z" fill="black" stroke="black" stroke-width="0.3"/>
<path d="M164.712 17.5441V17.3941H164.562H157.028V13.3161H165.568H165.718V13.1661V8.94232V8.79232H165.568H151.141H150.991V8.94232V30.5854V30.7354H151.141H165.568H165.718V30.5854V26.3616V26.2116H165.568H157.028V21.7637H164.562H164.712V21.6137V17.5441Z" fill="black" stroke="black" stroke-width="0.3"/>
<path d="M245.93 40.1689C245.93 40.7858 245.767 41.2405 245.443 41.533C245.124 41.8256 244.649 41.9719 244.019 41.9719C243.644 41.9719 243.341 41.9464 243.11 41.8956C242.885 41.851 242.691 41.7906 242.529 41.7143L242.726 41.0656C242.869 41.1228 243.029 41.1769 243.203 41.2278C243.378 41.2786 243.606 41.3041 243.887 41.3041C244.15 41.3041 244.362 41.2786 244.524 41.2278C244.693 41.1833 244.827 41.1038 244.927 40.9893C245.027 40.8812 245.096 40.7381 245.133 40.56C245.171 40.3883 245.19 40.1816 245.19 39.9399V39.482H245.152C245.027 39.6664 244.868 39.8095 244.674 39.9113C244.481 40.0067 244.228 40.0544 243.915 40.0544C243.285 40.0544 242.819 39.854 242.519 39.4534C242.226 39.0527 242.079 38.4294 242.079 37.5836C242.079 36.7695 242.27 36.1526 242.651 35.7329C243.032 35.3067 243.594 35.0937 244.337 35.0937C244.693 35.0937 244.996 35.1223 245.246 35.1795C245.502 35.2368 245.73 35.3036 245.93 35.3799V40.1689ZM244.047 39.3866C244.365 39.3866 244.615 39.3071 244.796 39.1481C244.977 38.9827 245.105 38.7283 245.18 38.3849V35.9427C244.93 35.8219 244.612 35.7615 244.225 35.7615C243.8 35.7615 243.466 35.9077 243.222 36.2003C242.979 36.4929 242.857 36.9508 242.857 37.574C242.857 37.8411 242.879 38.086 242.922 38.3086C242.966 38.5312 243.035 38.722 243.128 38.881C243.222 39.04 243.344 39.164 243.494 39.253C243.644 39.3421 243.828 39.3866 244.047 39.3866Z" fill="black"/>
<path d="M240.226 39.9494V37.2306C240.226 36.7345 240.154 36.3625 240.011 36.1144C239.873 35.86 239.617 35.7328 239.243 35.7328C238.911 35.7328 238.637 35.8251 238.418 36.0095C238.206 36.1876 238.056 36.4134 237.968 36.6868V39.9494H237.219V35.1795H237.743L237.884 35.7615H237.921C238.071 35.558 238.271 35.3926 238.521 35.2654C238.777 35.1318 239.08 35.0651 239.43 35.0651C239.686 35.0651 239.911 35.0969 240.104 35.1605C240.298 35.2177 240.457 35.3226 240.582 35.4753C240.713 35.6279 240.81 35.8346 240.873 36.0954C240.941 36.3498 240.976 36.6741 240.976 37.0684V39.9494H240.226Z" fill="black"/>
<path d="M234.87 35.1795H235.62V39.9494H234.87V35.1795ZM234.711 33.7294C234.711 33.5831 234.758 33.4591 234.851 33.3574C234.951 33.2492 235.076 33.1952 235.226 33.1952C235.376 33.1952 235.504 33.2492 235.61 33.3574C235.717 33.4591 235.77 33.5831 235.77 33.7294C235.77 33.8757 235.717 33.9965 235.61 34.0919C235.504 34.1873 235.376 34.235 235.226 34.235C235.076 34.235 234.951 34.1873 234.851 34.0919C234.758 33.9965 234.711 33.8757 234.711 33.7294Z" fill="black"/>
<path d="M230.918 35.1794H231.649V34.235L232.398 34.0156V35.1794H233.673V35.8472H232.398V38.4897C232.398 38.8204 232.439 39.0558 232.52 39.1957C232.601 39.3292 232.739 39.396 232.932 39.396C233.095 39.396 233.232 39.3801 233.345 39.3483C233.457 39.3101 233.582 39.2624 233.719 39.2052L233.888 39.7871C233.719 39.8698 233.535 39.9366 233.335 39.9875C233.135 40.0383 232.92 40.0638 232.689 40.0638C232.308 40.0638 232.039 39.9557 231.883 39.7394C231.727 39.5168 231.649 39.148 231.649 38.6328V35.8472H230.918V35.1794Z" fill="black"/>
<path d="M229.636 38.7761C229.636 38.9987 229.674 39.1577 229.749 39.2531C229.824 39.3485 229.93 39.3962 230.067 39.3962C230.148 39.3962 230.236 39.3899 230.33 39.3771C230.423 39.3644 230.529 39.3358 230.648 39.2913L230.732 39.8923C230.633 39.9432 230.492 39.9845 230.311 40.0163C230.136 40.0481 229.983 40.064 229.852 40.064C229.571 40.064 229.34 39.9845 229.158 39.8255C228.977 39.6601 228.887 39.3835 228.887 38.9955V33.2717H229.636V38.7761Z" fill="black"/>
<path d="M224.426 35.1795V37.8983C224.426 38.1464 224.439 38.3658 224.464 38.5566C224.495 38.741 224.545 38.8968 224.614 39.024C224.682 39.1449 224.776 39.2371 224.895 39.3007C225.013 39.3643 225.163 39.3961 225.344 39.3961C225.513 39.3961 225.663 39.3707 225.794 39.3198C225.925 39.2625 226.041 39.1862 226.141 39.0908C226.247 38.9954 226.338 38.8873 226.413 38.7665C226.494 38.6393 226.559 38.5057 226.609 38.3658V35.1795H227.359V38.5947C227.359 38.8237 227.365 39.0622 227.378 39.3102C227.396 39.5519 227.424 39.765 227.462 39.9494H226.947L226.759 39.1958H226.712C226.569 39.4438 226.375 39.6505 226.131 39.8158C225.888 39.9812 225.579 40.0639 225.204 40.0639C224.954 40.0639 224.732 40.0321 224.539 39.9685C224.351 39.9112 224.192 39.8063 224.061 39.6537C223.936 39.501 223.839 39.2975 223.77 39.0431C223.708 38.7824 223.677 38.4548 223.677 38.0605V35.1795H224.426Z" fill="black"/>
<path d="M221.868 38.652C221.868 38.4612 221.812 38.3118 221.7 38.2037C221.587 38.0955 221.447 38.0065 221.278 37.9365C221.116 37.8602 220.935 37.7903 220.735 37.7267C220.541 37.6567 220.36 37.5708 220.191 37.4691C220.029 37.361 219.892 37.2242 219.779 37.0589C219.667 36.8935 219.61 36.6709 219.61 36.3911C219.61 35.9332 219.738 35.5993 219.995 35.3894C220.251 35.1732 220.607 35.0651 221.063 35.0651C221.4 35.0651 221.681 35.0969 221.906 35.1605C222.137 35.2177 222.337 35.2877 222.506 35.3703L222.328 36C222.184 35.93 222.009 35.8696 221.803 35.8187C221.603 35.7615 221.387 35.7328 221.156 35.7328C220.882 35.7328 220.679 35.7805 220.547 35.8759C220.422 35.9713 220.36 36.1367 220.36 36.372C220.36 36.5374 220.416 36.6677 220.529 36.7631C220.641 36.8522 220.778 36.9349 220.941 37.0112C221.11 37.0811 221.291 37.1511 221.484 37.2211C221.684 37.291 221.865 37.3832 222.028 37.4977C222.196 37.6122 222.337 37.7585 222.449 37.9365C222.562 38.1083 222.618 38.3372 222.618 38.6234C222.618 38.8269 222.584 39.0177 222.515 39.1958C222.452 39.3739 222.353 39.5265 222.215 39.6537C222.078 39.7809 221.906 39.8795 221.7 39.9494C221.5 40.0258 221.263 40.0639 220.988 40.0639C220.632 40.0639 220.329 40.0289 220.079 39.959C219.829 39.889 219.62 39.8063 219.451 39.7109L219.676 39.0622C219.82 39.1449 220.007 39.2212 220.238 39.2912C220.469 39.3611 220.704 39.3961 220.941 39.3961C221.209 39.3961 221.431 39.3421 221.606 39.234C221.781 39.1258 221.868 38.9319 221.868 38.652Z" fill="black"/>
<path d="M217.691 39.9494V37.2306C217.691 36.7345 217.619 36.3625 217.476 36.1144C217.338 35.86 217.082 35.7328 216.707 35.7328C216.376 35.7328 216.101 35.8251 215.883 36.0095C215.67 36.1876 215.521 36.4134 215.433 36.6868V39.9494H214.684V35.1795H215.208L215.349 35.7615H215.386C215.536 35.558 215.736 35.3926 215.986 35.2654C216.242 35.1318 216.545 35.0651 216.895 35.0651C217.151 35.0651 217.376 35.0969 217.569 35.1605C217.763 35.2177 217.922 35.3226 218.047 35.4753C218.178 35.6279 218.275 35.8346 218.338 36.0954C218.406 36.3498 218.441 36.6741 218.441 37.0684V39.9494H217.691Z" fill="black"/>
<path d="M209.397 37.5645C209.397 36.7568 209.572 36.1399 209.922 35.7138C210.278 35.2813 210.787 35.0651 211.449 35.0651C211.799 35.0651 212.102 35.1255 212.358 35.2463C212.62 35.3608 212.836 35.5293 213.005 35.7519C213.173 35.9682 213.298 36.2321 213.379 36.5437C213.461 36.849 213.501 37.1893 213.501 37.5645C213.501 38.3722 213.323 38.9923 212.967 39.4247C212.617 39.8509 212.111 40.0639 211.449 40.0639C211.1 40.0639 210.793 40.0067 210.531 39.8922C210.275 39.7714 210.063 39.6028 209.894 39.3866C209.725 39.164 209.6 38.9001 209.519 38.5948C209.438 38.2832 209.397 37.9397 209.397 37.5645ZM210.175 37.5645C210.175 37.8062 210.197 38.0383 210.241 38.2609C210.291 38.4835 210.366 38.6775 210.466 38.8428C210.565 39.0082 210.697 39.1417 210.859 39.2435C211.021 39.3452 211.218 39.3961 211.449 39.3961C212.299 39.4025 212.724 38.7919 212.724 37.5645C212.724 37.3165 212.699 37.0811 212.649 36.8585C212.605 36.6359 212.533 36.442 212.433 36.2766C212.333 36.1113 212.202 35.9809 212.04 35.8855C211.877 35.7837 211.68 35.7328 211.449 35.7328C210.6 35.7265 210.175 36.337 210.175 37.5645Z" fill="black"/>
<path d="M208.91 39.6727C208.722 39.819 208.485 39.9208 208.197 39.978C207.91 40.0352 207.604 40.0638 207.279 40.0638C206.886 40.0638 206.517 39.9971 206.174 39.8635C205.83 39.7236 205.53 39.5137 205.274 39.2339C205.018 38.9541 204.815 38.5979 204.665 38.1654C204.515 37.7266 204.44 37.2083 204.44 36.6104C204.44 35.9872 204.522 35.4593 204.684 35.0268C204.853 34.588 205.071 34.2319 205.34 33.9584C205.615 33.6786 205.921 33.475 206.258 33.3478C206.595 33.2206 206.939 33.157 207.289 33.157C207.663 33.157 207.97 33.1793 208.207 33.2238C208.444 33.262 208.647 33.316 208.816 33.386L208.628 34.0824C208.329 33.9361 207.901 33.863 207.345 33.863C207.089 33.863 206.836 33.9107 206.586 34.0061C206.336 34.1015 206.111 34.2573 205.911 34.4735C205.718 34.6898 205.562 34.9728 205.443 35.3226C205.324 35.6724 205.265 36.1017 205.265 36.6104C205.265 37.0684 205.321 37.469 205.434 37.8125C205.546 38.1559 205.699 38.4421 205.893 38.671C206.093 38.9 206.324 39.0717 206.586 39.1862C206.855 39.3007 207.145 39.3579 207.457 39.3579C207.738 39.3579 207.982 39.3293 208.188 39.272C208.4 39.2148 208.579 39.1417 208.722 39.0526L208.91 39.6727Z" fill="black"/>
<path d="M201.626 33.9776H199.584V39.9495H198.806V33.9776H196.764V33.2717H201.626V33.9776Z" fill="black"/>
<path d="M194.844 33.2717H195.621V39.9495H194.844V33.2717Z" fill="black"/>
<path d="M133.103 13.8859H129.633V8.77466H135.83L140.014 15.0851L143.304 8.7807L149.392 8.78068L142.939 21.6378L142.939 30.6753H137.194L137.239 21.644L133.103 13.8859Z" fill="black" stroke="black" stroke-width="0.3"/>
<path d="M220.757 8.78558L228.661 30.7003L235.379 19.4636L242.097 30.7003L250 8.78558L243.941 8.80154L240.253 18.6336L235.461 8.80154L230.505 18.6336L226.816 8.80154L220.757 8.78558Z" fill="black" stroke="black" stroke-width="0.3"/>
<ellipse cx="98.661" cy="23.591" rx="18.285" ry="18.2874" fill="#FFF200"/>
<path d="M92.3527 21.2184H88.6895L88.6901 16.3706H95.2316L99.446 21.3839L103.12 16.3749L109.888 16.3749L102.735 25.8532V32.0669H96.6707L96.7177 26.2764L92.3527 21.2184Z" fill="black"/>
</svg>
