<svg width="108" height="22" viewBox="0 0 108 22" fill="none" xmlns="http://www.w3.org/2000/svg">
<path d="M0.547241 20.47H3.58718L5.04885 16.8911H15.8352L17.2678 20.47H20.3078L12.0061 0.841309H8.8483L0.547241 20.47ZM7.91356 9.87638L8.41024 8.60664C9.25799 6.52775 9.98914 4.79618 10.4272 3.49656C10.8949 4.79618 11.626 6.52775 12.4738 8.60664L12.9995 9.87638H7.91356ZM28.4342 20.7588C32.2047 20.7588 35.186 18.7092 36.122 15.0145H33.1111C32.4682 17.0349 30.8017 18.1608 28.5509 18.1608C25.4523 18.1608 23.5229 15.996 23.5229 12.8497C23.5229 9.84775 25.3357 7.53794 28.5212 7.53794C30.8017 7.53794 32.4096 8.57739 33.0815 10.9158H36.0924C35.4205 7.13399 32.4682 4.94058 28.5798 4.94058C24.0492 4.94058 20.5416 8.14418 20.5416 12.8497C20.5416 17.4102 23.5822 20.7588 28.4342 20.7588ZM38.3722 20.47H41.2949V12.5901C41.2949 9.87638 42.1427 8.14418 45.2122 8.14418H45.6503V4.94058H45.3874C43.5753 4.94058 42.1427 5.80574 41.1783 7.16262L41.0611 5.22876H38.3722V20.47ZM54.2161 20.7588C58.8929 20.7588 62.3129 17.4102 62.3129 12.8497C62.3129 8.34647 58.9515 4.94058 54.2161 4.94058C49.6558 4.94058 46.1192 8.17343 46.1192 12.8497C46.1192 17.4102 49.5392 20.7588 54.2161 20.7588ZM64.4761 20.47H67.3994V11.6951C67.3994 9.21226 69.0067 7.5672 71.6086 7.5672C74.0056 7.5672 74.9996 8.92408 74.9996 11.4063V20.47H77.9223V10.8579C77.9223 7.07611 75.8763 4.94058 72.2225 4.94058C70.1179 4.94058 68.481 5.57545 67.2822 6.81656L67.078 5.22938H64.4761V20.47ZM93.8241 20.7588C95.6955 20.7588 97.1565 20.4127 98.2677 19.5177C99.3197 18.6805 99.875 17.4102 99.875 15.9674C99.875 14.6105 99.2617 13.2823 97.9753 12.5895C97.0103 12.0704 95.9583 11.8675 94.8181 11.6951C93.6199 11.5214 92.2169 11.3777 91.4567 11.0889C90.6966 10.8001 90.2875 10.3668 90.2875 9.52969C90.2875 8.23132 91.4277 7.27839 93.3564 7.27839C95.1692 7.27839 96.5722 8.14418 96.7475 9.90501H99.5246C99.3493 6.58564 96.9523 4.94058 93.3564 4.94058C90.0537 4.94058 87.4814 6.64352 87.4814 9.87638C87.4814 11.2619 88.0367 12.503 89.4398 13.1671C90.3461 13.6003 91.3981 13.8312 92.9184 14.0622C94.3801 14.2925 95.1106 14.4082 95.8121 14.6684C96.5426 14.928 97.0103 15.3319 97.0103 16.3135C97.0103 17.7276 95.6369 18.421 93.8241 18.421C91.6319 18.421 90.1413 17.6118 89.8488 15.7651H87.0137C87.3056 19.3733 90.0537 20.7588 93.8241 20.7588ZM81.1091 20.47H84.0028V5.22938H81.1091V20.47ZM54.2457 18.1608C51.2637 18.1608 49.1295 15.996 49.1295 12.8204C49.1295 9.84775 51.0299 7.53794 54.2161 7.53794C57.3436 7.53794 59.3316 9.8185 59.3316 12.8204C59.3316 15.8803 57.2566 18.1608 54.2457 18.1608ZM6.0422 14.4369L6.97757 12.1856H13.9348L14.8406 14.4369H6.0422Z" fill="white"/>
</svg>
