<svg width="108" height="22" viewBox="0 0 108 22" fill="none" xmlns="http://www.w3.org/2000/svg">
<g clip-path="url(#clip0_14_103)">
<path d="M0.547241 20.7678H3.58718L5.04885 17.1889H15.8352L17.2678 20.7678H20.3078L12.0061 1.13916H8.8483L0.547241 20.7678ZM7.91356 10.1742L8.41024 8.90449C9.25799 6.8256 9.98914 5.09403 10.4272 3.79441C10.8949 5.09403 11.626 6.8256 12.4738 8.90449L12.9995 10.1742H7.91356ZM28.4342 21.0567C32.2047 21.0567 35.186 19.007 36.122 15.3123H33.1111C32.4682 17.3327 30.8017 18.4587 28.5509 18.4587C25.4523 18.4587 23.5229 16.2939 23.5229 13.1475C23.5229 10.1456 25.3357 7.83579 28.5212 7.83579C30.8017 7.83579 32.4096 8.87524 33.0815 11.2137H36.0924C35.4205 7.43184 32.4682 5.23843 28.5798 5.23843C24.0492 5.23843 20.5416 8.44203 20.5416 13.1475C20.5416 17.708 23.5822 21.0567 28.4342 21.0567ZM38.3722 20.7678H41.2949V12.888C41.2949 10.1742 42.1427 8.44203 45.2122 8.44203H45.6503V5.23843H45.3874C43.5753 5.23843 42.1427 6.10359 41.1783 7.46047L41.0611 5.52661H38.3722V20.7678ZM54.2161 21.0567C58.8929 21.0567 62.3129 17.708 62.3129 13.1475C62.3129 8.64432 58.9515 5.23843 54.2161 5.23843C49.6558 5.23843 46.1192 8.47129 46.1192 13.1475C46.1192 17.708 49.5392 21.0567 54.2161 21.0567ZM64.4761 20.7678H67.3994V11.9929C67.3994 9.51011 69.0067 7.86505 71.6086 7.86505C74.0056 7.86505 74.9996 9.22193 74.9996 11.7041V20.7678H77.9223V11.1558C77.9223 7.37396 75.8763 5.23843 72.2225 5.23843C70.1179 5.23843 68.481 5.8733 67.2822 7.11441L67.078 5.52723H64.4761V20.7678ZM93.8241 21.0567C95.6955 21.0567 97.1565 20.7106 98.2677 19.8155C99.3197 18.9784 99.875 17.708 99.875 16.2652C99.875 14.9084 99.2617 13.5801 97.9753 12.8874C97.0103 12.3683 95.9583 12.1654 94.8181 11.9929C93.6199 11.8193 92.2169 11.6755 91.4567 11.3867C90.6966 11.0979 90.2875 10.6647 90.2875 9.82754C90.2875 8.52917 91.4277 7.57624 93.3564 7.57624C95.1692 7.57624 96.5722 8.44203 96.7475 10.2029H99.5246C99.3493 6.88349 96.9523 5.23843 93.3564 5.23843C90.0537 5.23843 87.4814 6.94137 87.4814 10.1742C87.4814 11.5597 88.0367 12.8009 89.4398 13.465C90.3461 13.8982 91.3981 14.1291 92.9184 14.36C94.3801 14.5903 95.1106 14.7061 95.8121 14.9663C96.5426 15.2258 97.0103 15.6298 97.0103 16.6113C97.0103 18.0255 95.6369 18.7188 93.8241 18.7188C91.6319 18.7188 90.1413 17.9097 89.8488 16.063H87.0137C87.3056 19.6711 90.0537 21.0567 93.8241 21.0567ZM81.1091 20.7678H84.0028V5.52723H81.1091V20.7678ZM54.2457 18.4587C51.2637 18.4587 49.1295 16.2939 49.1295 13.1183C49.1295 10.1456 51.0299 7.83579 54.2161 7.83579C57.3436 7.83579 59.3316 10.1163 59.3316 13.1183C59.3316 16.1781 57.2566 18.4587 54.2457 18.4587ZM6.0422 14.7347L6.97757 12.4834H13.9348L14.8406 14.7347H6.0422Z" fill="#BDBDBD"/>
</g>
<defs>
<clipPath id="clip0_14_103">
<rect width="108" height="21.6" fill="white"/>
</clipPath>
</defs>
</svg>
