<svg width="119" height="48" viewBox="0 0 119 48" fill="none" xmlns="http://www.w3.org/2000/svg">
<g clip-path="url(#clip0_15_261)">
<path d="M0 0.954102V11.5311H36.824V0.954102H0ZM34.523 9.2301H2.301V3.2551H34.523V9.2301Z" fill="#00B388"/>
<path d="M6.702 33.622V34.909H1.474V38.143H6.228V39.397H1.474V42.917H6.702V44.205H0V33.629H6.702V33.622ZM10.343 44.198H8.903V36.41H10.256V37.864C10.816 36.884 11.71 36.237 12.864 36.237C14.678 36.237 15.744 37.424 15.744 39.197V44.193H14.304V39.23C14.304 38.197 13.764 37.59 12.564 37.59C12.0705 37.5931 11.5907 37.7522 11.1931 38.0444C10.7954 38.3366 10.5003 38.747 10.35 39.217V44.191L10.343 44.198ZM21.633 44.365C19.686 44.365 18.906 43.518 18.906 41.978V37.676H17.265V36.41H18.905V34.396H20.345V36.41H22.56V37.677H20.346V41.838C20.346 42.772 20.873 43.018 21.766 43.018C22 43.018 22.24 42.985 22.44 42.918H22.56V44.186C22.2622 44.3008 21.9451 44.3575 21.626 44.353L21.633 44.365ZM27.961 44.365C25.374 44.365 23.727 42.845 23.727 40.39C23.727 37.935 25.254 36.243 27.481 36.243C29.708 36.243 30.949 37.783 30.949 40.07V40.83H25.214C25.414 42.351 26.501 43.065 27.974 43.065C28.888 43.065 29.582 42.911 30.262 42.425H30.416V43.658C29.722 44.185 28.822 44.365 27.961 44.365ZM25.234 39.69H29.549C29.495 38.27 28.755 37.51 27.501 37.51C26.248 37.51 25.421 38.423 25.234 39.69ZM37.251 37.876C37.051 37.776 36.744 37.71 36.424 37.71C35.51 37.71 34.784 38.356 34.477 39.404V44.191H33.037V36.403H34.39V38.076C34.85 36.809 35.677 36.283 36.604 36.283C36.944 36.283 37.244 36.336 37.364 36.403V37.876H37.244H37.251ZM40.245 42.918V47.046H38.805V36.403H40.158V37.743C40.618 36.949 41.512 36.236 42.712 36.236C45.066 36.236 46.3 38.096 46.3 40.21C46.3 42.324 45.066 44.272 42.712 44.272C42.2192 44.2718 41.7343 44.1476 41.302 43.911C40.8697 43.6745 40.5038 43.333 40.238 42.918H40.245ZM44.833 40.21C44.833 38.637 43.953 37.59 42.379 37.59C41.445 37.59 40.705 38.083 40.245 38.93V41.604C40.705 42.431 41.445 42.944 42.379 42.944C43.953 42.944 44.833 41.857 44.833 40.217V40.21ZM52.689 37.876C52.489 37.776 52.182 37.71 51.862 37.71C50.948 37.71 50.222 38.356 49.914 39.404V44.191H48.474V36.403H49.828V38.076C50.281 36.809 51.115 36.283 52.042 36.283C52.382 36.283 52.682 36.336 52.802 36.403V37.876H52.682H52.689ZM55.143 35.622C54.603 35.622 54.109 35.162 54.109 34.609C54.109 34.055 54.602 33.609 55.143 33.609C55.683 33.609 56.176 34.049 56.176 34.609C56.176 35.169 55.703 35.622 55.143 35.622ZM55.856 44.185H54.416V36.395H55.856V44.185ZM58.19 42.338H58.324C58.964 42.864 59.917 43.131 60.811 43.131C61.658 43.131 62.405 42.811 62.405 42.118C62.405 41.424 61.778 41.271 60.545 40.864C59.444 40.491 58.21 40.104 58.21 38.63C58.21 37.156 59.464 36.23 61.071 36.23C61.985 36.23 62.798 36.416 63.471 36.87V38.19H63.318C62.6782 37.6976 61.8914 37.4345 61.084 37.443C60.191 37.443 59.664 37.85 59.664 38.423C59.664 39.063 60.204 39.237 61.478 39.623C62.611 39.997 63.865 40.437 63.865 41.911C63.865 43.518 62.545 44.345 60.838 44.345C59.804 44.345 58.77 44.092 58.197 43.631V42.324L58.19 42.338ZM69.714 44.352C67.126 44.352 65.479 42.832 65.479 40.377C65.479 37.922 66.999 36.229 69.233 36.229C71.467 36.229 72.701 37.769 72.701 40.057V40.817H66.966C67.166 42.337 68.253 43.051 69.726 43.051C70.641 43.051 71.334 42.898 72.014 42.411H72.168V43.645C71.474 44.171 70.574 44.352 69.714 44.352ZM66.986 39.677H71.301C71.247 38.257 70.507 37.497 69.253 37.497C68 37.497 67.173 38.41 66.986 39.677ZM8.89 18.53V29.106H6.59V24.725H2.3V29.106H0V18.531H2.3V22.712H6.582V18.531H8.889M15.131 29.294C12.217 29.294 10.663 27.72 10.663 25.179C10.663 22.639 12.29 20.965 14.638 20.965C17.178 20.965 18.445 22.559 18.445 24.939V25.833H13.03C13.197 27.14 14.23 27.473 15.244 27.473C16.158 27.473 16.872 27.353 17.612 26.953H17.865V28.613C17.185 29.107 16.105 29.293 15.125 29.293L15.131 29.294ZM13.017 24.386H16.185C16.118 23.199 15.611 22.679 14.678 22.679C13.884 22.679 13.169 23.052 13.017 24.386ZM21.161 29.107L19.5 21.425V21.151H21.634L22.534 25.993L22.754 27.547L23.061 25.993L24.141 21.152H26.562L27.629 25.992L27.949 27.547L28.202 25.993L29.102 21.152H31.137V21.425L29.463 29.107H26.515L25.568 24.859L25.295 23.265L25.022 24.859L24.088 29.107H21.161ZM35.191 29.294C33.497 29.294 32.651 28.514 32.651 26.706V18.531H34.951V26.553C34.951 27.113 35.184 27.3 35.731 27.3C35.898 27.3 36.171 27.247 36.338 27.2H36.372V29.114C35.9873 29.2329 35.5876 29.2959 35.185 29.301L35.191 29.294ZM41.52 29.294C38.606 29.294 37.052 27.72 37.052 25.179C37.052 22.639 38.679 20.965 41.026 20.965C43.567 20.965 44.834 22.559 44.834 24.939V25.833H39.419C39.586 27.14 40.619 27.473 41.633 27.473C42.547 27.473 43.26 27.353 44 26.953H44.254V28.613C43.574 29.107 42.494 29.293 41.514 29.293L41.52 29.294ZM39.406 24.386H42.573C42.507 23.199 42 22.679 41.066 22.679C40.273 22.679 39.559 23.052 39.406 24.386ZM52.643 26.213V23.045H49.275V26.106C49.275 26.92 49.549 27.293 50.309 27.293C50.529 27.293 50.816 27.227 50.969 27.16H51.189V29.054C50.882 29.154 50.429 29.287 49.749 29.287C47.802 29.287 46.975 28.354 46.975 26.207V23.039H45.6V21.145H46.974V19.218H49.274V21.145H52.642V19.218H54.942V21.145H56.856V23.039H54.943V26.099C54.943 26.913 55.216 27.287 55.976 27.287C56.196 27.287 56.483 27.22 56.636 27.153H56.856V29.047C56.55 29.147 56.096 29.28 55.416 29.28C53.469 29.28 52.642 28.354 52.642 26.2L52.643 26.213ZM63.626 25.84V29.107H61.339V18.531H65.453C67.787 18.531 69.328 19.818 69.328 22.205C69.328 24.592 67.788 25.846 65.453 25.846H63.626V25.84ZM65.266 20.478H63.626V23.899H65.266C66.434 23.899 66.994 23.205 66.994 22.205C66.994 21.172 66.433 20.478 65.266 20.478ZM75.184 27.927C74.71 28.807 73.844 29.194 72.784 29.194C71.309 29.194 70.089 28.347 70.089 26.774C70.089 25.199 71.156 24.286 73.169 24.286C73.83 24.286 74.49 24.352 75.117 24.472V24.012C75.117 23.165 74.524 22.792 73.337 22.792C72.457 22.792 71.73 22.979 71.123 23.285H70.869V21.558C71.476 21.238 72.563 20.965 73.61 20.965C76.097 20.965 77.384 22.099 77.384 24.065V29.107H75.184V27.92V27.927ZM75.117 26.627V25.613C74.724 25.493 74.217 25.459 73.81 25.459C72.876 25.459 72.403 25.813 72.403 26.539C72.403 27.267 72.877 27.553 73.57 27.553C74.263 27.553 74.89 27.213 75.11 26.626L75.117 26.627ZM79.078 25.153C79.078 22.579 80.892 20.972 83.246 20.972C84.213 20.972 84.953 21.192 85.46 21.532V23.526H85.227C84.733 23.152 84.193 22.986 83.5 22.986C82.366 22.986 81.452 23.779 81.452 25.153C81.452 26.527 82.366 27.287 83.5 27.287C84.193 27.287 84.733 27.12 85.227 26.747H85.46V28.74C84.953 29.08 84.206 29.3 83.246 29.3C80.892 29.3 79.078 27.713 79.078 25.153ZM89.535 25.253V29.113H87.234V18.538H89.534V24.567L90.074 23.753L92.189 21.166H94.623V21.439L91.675 24.774L94.623 28.854V29.128H92.035L90.068 26.214L89.528 25.267L89.535 25.253ZM100.264 27.927C99.791 28.807 98.924 29.194 97.864 29.194C96.39 29.194 95.17 28.347 95.17 26.774C95.17 25.199 96.237 24.286 98.25 24.286C98.91 24.286 99.57 24.352 100.198 24.472V24.012C100.198 23.165 99.604 22.792 98.418 22.792C97.537 22.792 96.81 22.979 96.203 23.285H95.95V21.558C96.557 21.238 97.644 20.965 98.69 20.965C101.178 20.965 102.465 22.099 102.465 24.065V29.107H100.264V27.92V27.927ZM100.198 26.627V25.613C99.811 25.493 99.298 25.459 98.898 25.459C97.964 25.459 97.49 25.813 97.49 26.539C97.49 27.267 97.964 27.553 98.657 27.553C99.35 27.553 99.977 27.213 100.198 26.626M106.766 22.764C107.193 21.577 108.087 21.07 109 21.07C109.307 21.07 109.56 21.157 109.66 21.204V23.384H109.42C109.176 23.2563 108.903 23.1924 108.627 23.198C107.713 23.198 107.053 23.618 106.866 24.518V29.106H104.566V21.15H106.766V22.764ZM116.316 27.993C115.789 28.819 114.962 29.293 113.928 29.293C111.761 29.293 110.427 27.546 110.427 25.145C110.427 22.744 111.768 20.964 113.928 20.964C114.895 20.964 115.689 21.384 116.216 22.118V18.53H118.516V29.106H116.316V27.993ZM116.216 26.519V23.745C115.789 23.138 115.215 22.845 114.555 22.845C113.508 22.845 112.795 23.658 112.795 25.145C112.795 26.632 113.508 27.412 114.555 27.412C115.215 27.412 115.789 27.126 116.216 26.519Z" fill="black"/>
</g>
<defs>
<clipPath id="clip0_15_261">
<rect width="119" height="48" fill="white"/>
</clipPath>
</defs>
</svg>
