<svg width="104" height="35" viewBox="0 0 104 35" fill="none" xmlns="http://www.w3.org/2000/svg">
<g clip-path="url(#clip0_15_255)">
<path d="M103.501 0H0V34.8317H103.501V0Z" fill="white"/>
<path d="M0 34.8317V0H103.501V34.8317H0ZM21.5858 21.8569H13.2965V7.35037H9.59887V25.3444H21.5858V21.8569ZM34.2129 13.5339C33.5526 12.7747 32.7396 12.1772 31.8321 11.7841C30.9246 11.391 29.9451 11.2121 28.9635 11.2602C28.0459 11.2277 27.1314 11.3894 26.2752 11.7356C25.419 12.0818 24.6389 12.6052 23.9819 13.2744C23.3249 13.9436 22.8046 14.7446 22.4523 15.6292C22.1 16.5139 21.9231 17.4637 21.9322 18.4216C21.9322 22.6014 24.9629 25.583 29.3675 25.583C31.6789 25.5865 33.8976 24.6351 35.5383 22.9367L33.2321 21.0889C32.1865 22.0615 30.8265 22.5849 29.426 22.5535C28.8887 22.5796 28.3518 22.494 27.8465 22.3016C27.3412 22.1092 26.8777 21.8139 26.4829 21.4328L35.808 17.3984C35.6416 15.9781 35.0896 14.637 34.217 13.533L34.2129 13.5339ZM50.485 16.7645C50.5081 16.0248 50.3834 15.2881 50.1189 14.6014C49.8543 13.9147 49.4557 13.2929 48.9483 12.7756C48.4409 12.2584 47.8359 11.8569 47.1717 11.5967C46.5076 11.3366 45.7988 11.2235 45.0905 11.2646C44.2553 11.2686 43.4318 11.4703 42.6821 11.8545C41.9325 12.2386 41.2762 12.7953 40.7626 13.4825V11.4875H37.1142V25.3401H40.7626V17.4568C40.7674 17.056 40.85 16.6604 41.0052 16.2938C41.1604 15.9271 41.3852 15.5971 41.666 15.3235C41.9467 15.0499 42.2776 14.8384 42.6388 14.7017C43 14.5651 43.3839 14.5061 43.7675 14.5283C44.1539 14.5076 44.5405 14.5672 44.9047 14.7036C45.2689 14.8401 45.6034 15.0506 45.889 15.3231C46.1745 15.5955 46.4053 15.9245 46.568 16.2907C46.7307 16.657 46.822 17.0534 46.8366 17.4568V25.3401H50.485V16.7628V16.7645ZM59.0881 11.2646C57.7406 11.3143 56.437 11.7767 55.3396 12.594C54.2422 13.4113 53.3997 14.5475 52.9169 15.8609C52.4342 17.1743 52.3326 18.6069 52.6249 19.9802C52.9171 21.3534 53.5903 22.6065 54.5605 23.5834C55.5307 24.5602 56.7549 25.2176 58.0808 25.4737C59.4066 25.7297 60.7753 25.573 62.0163 25.0231C63.2574 24.4732 64.3159 23.5545 65.0599 22.3814C65.8039 21.2083 66.2006 19.8327 66.2005 18.426C66.1911 17.4662 65.999 16.5179 65.6352 15.6363C65.2714 14.7547 64.7433 13.9573 64.0815 13.2905C63.4197 12.6238 62.6374 12.1009 61.7802 11.7523C60.923 11.4038 60.0079 11.2365 59.0881 11.2602V11.2646ZM76.3986 11.4945L73.1025 20.9286L69.8038 11.4945H65.6412L71.1042 25.3401H75.099L80.562 11.4945H76.3986ZM87.1594 11.2602C85.8119 11.31 84.5082 11.7723 83.4109 12.5896C82.3135 13.407 81.4709 14.5431 80.9882 15.8566C80.5055 17.17 80.4039 18.6026 80.6961 19.9758C80.9884 21.349 81.6616 22.6021 82.6317 23.579C83.6019 24.5559 84.8262 25.2133 86.152 25.4693C87.4778 25.7253 88.8466 25.5686 90.0876 25.0188C91.3287 24.4689 92.3871 23.5501 93.1312 22.377C93.8752 21.2039 94.2719 19.8283 94.2717 18.4216C94.2618 17.4622 94.0693 16.5144 93.7053 15.6333C93.3413 14.7522 92.813 13.9553 92.1513 13.289C91.4895 12.6227 90.7075 12.1002 89.8505 11.7519C88.9936 11.4037 88.0788 11.2365 87.1594 11.2602ZM87.1594 22.3193C86.6785 22.3123 86.2038 22.2053 85.7631 22.0046C85.3223 21.8039 84.9244 21.5135 84.5925 21.1504C84.2606 20.7873 84.0015 20.3588 83.8303 19.8899C83.659 19.4211 83.5791 18.9213 83.5953 18.4199C83.5616 17.9186 83.6276 17.4154 83.7891 16.9419C83.9507 16.4685 84.2044 16.035 84.5342 15.6688C84.8641 15.3025 85.263 15.0113 85.7058 14.8136C86.1487 14.6158 86.6259 14.5157 87.1076 14.5196C87.5886 14.5266 88.0633 14.6336 88.5041 14.8344C88.945 15.0352 89.343 15.3257 89.6748 15.6888C90.0067 16.052 90.2659 16.4806 90.437 16.9496C90.6082 17.4185 90.688 17.9184 90.6717 18.4199C90.7012 18.9202 90.6323 19.4215 90.4691 19.8929C90.3059 20.3643 90.0519 20.7959 89.7227 21.161C89.3936 21.5261 88.9963 21.8171 88.5553 22.016C88.1143 22.2149 87.639 22.3176 87.1585 22.3176L87.1594 22.3193ZM59.089 22.3193C58.6081 22.3123 58.1334 22.2053 57.6926 22.0046C57.2519 21.8039 56.8539 21.5135 56.5221 21.1504C56.1902 20.7873 55.931 20.3588 55.7598 19.8899C55.5886 19.4211 55.5087 18.9213 55.5249 18.4199C55.4912 17.9183 55.5574 17.4149 55.7192 16.9413C55.8811 16.4676 56.1351 16.034 56.4652 15.6678C56.7954 15.3015 57.1946 15.0104 57.6378 14.8128C58.081 14.6152 58.5586 14.5154 59.0405 14.5196C59.5211 14.5271 59.9953 14.6344 60.4356 14.8352C60.8759 15.0361 61.2735 15.3265 61.605 15.6895C61.9365 16.0524 62.1953 16.4807 62.3664 16.9492C62.5375 17.4177 62.6173 17.9171 62.6013 18.4181C62.6311 18.9186 62.5623 19.42 62.3992 19.8917C62.2361 20.3633 61.9821 20.7951 61.653 21.1604C61.3238 21.5257 60.9264 21.8169 60.4853 22.0159C60.0442 22.2149 59.5687 22.3176 59.0881 22.3176L59.089 22.3193ZM26.2308 15.6664C26.5595 15.2205 26.9854 14.8628 27.4732 14.6229C27.9609 14.383 28.4964 14.2679 29.0353 14.2871C29.637 14.2834 30.2264 14.4652 30.7294 14.8098C31.2323 15.1543 31.6265 15.6462 31.8624 16.2237L25.4896 18.9833C25.3052 17.8198 25.5702 16.6274 26.2266 15.6673L26.2308 15.6664Z" fill="#E02826"/>
</g>
<defs>
<clipPath id="clip0_15_255">
<rect width="103.5" height="34.8317" fill="white"/>
</clipPath>
</defs>
</svg>
