<svg width="104" height="34" viewBox="0 0 104 34" fill="none" xmlns="http://www.w3.org/2000/svg">
<g clip-path="url(#clip0_15_231)">
<path d="M103.501 0H0V33.3874H103.501V0Z" fill="white"/>
<path d="M0 33.3874V0H103.501V33.3874H0ZM21.5858 20.9506H13.2965V7.04557H9.59887V24.2935H21.5858V20.9506ZM34.2129 12.9727C33.5526 12.245 32.7396 11.6722 31.8321 11.2954C30.9246 10.9187 29.9451 10.7472 28.9635 10.7933C28.0459 10.7622 27.1314 10.9172 26.2752 11.249C25.419 11.5808 24.6389 12.0825 23.9819 12.7239C23.3249 13.3654 22.8046 14.1332 22.4523 14.9811C22.1 15.8291 21.9231 16.7396 21.9322 17.6577C21.9322 21.6642 24.9629 24.5222 29.3675 24.5222C31.6789 24.5255 33.8976 23.6135 35.5383 21.9856L33.2321 20.2144C32.1865 21.1467 30.8265 21.6483 29.426 21.6183C28.8887 21.6433 28.3518 21.5612 27.8465 21.3768C27.3413 21.1924 26.8777 20.9093 26.4829 20.5441L35.808 16.677C35.6416 15.3156 35.0896 14.03 34.217 12.9718L34.2129 12.9727ZM50.485 16.0693C50.5081 15.3603 50.3834 14.6542 50.1189 13.9959C49.8543 13.3377 49.4557 12.7417 48.9483 12.2459C48.4409 11.75 47.8359 11.3652 47.1717 11.1159C46.5076 10.8665 45.7988 10.7581 45.0905 10.7975C44.2553 10.8013 43.4318 10.9946 42.6821 11.3629C41.9325 11.7311 41.2762 12.2647 40.7626 12.9234V11.0112H37.1142V24.2893H40.7626V16.7329C40.7675 16.3488 40.85 15.9695 41.0052 15.6181C41.1605 15.2667 41.3852 14.9503 41.666 14.6881C41.9467 14.4258 42.2776 14.2231 42.6388 14.0921C43 13.9611 43.3839 13.9046 43.7675 13.9259C44.1539 13.906 44.5405 13.9632 44.9047 14.0939C45.2689 14.2247 45.6034 14.4265 45.889 14.6877C46.1745 14.9488 46.4053 15.2641 46.568 15.6152C46.7307 15.9663 46.822 16.3462 46.8366 16.7329V24.2893H50.485V16.0677V16.0693ZM59.0881 10.7975C57.7406 10.8451 56.437 11.2883 55.3396 12.0718C54.2422 12.8552 53.3997 13.9443 52.9169 15.2032C52.4342 16.4622 52.3326 17.8354 52.6249 19.1516C52.9172 20.4679 53.5903 21.6691 54.5605 22.6054C55.5307 23.5418 56.755 24.1719 58.0808 24.4173C59.4066 24.6627 60.7753 24.5126 62.0164 23.9855C63.2574 23.4584 64.3159 22.5778 65.0599 21.4533C65.804 20.3288 66.2006 19.0103 66.2005 17.6619C66.1911 16.7419 65.999 15.833 65.6352 14.9879C65.2714 14.1429 64.7433 13.3785 64.0815 12.7394C63.4197 12.1003 62.6374 11.5991 61.7802 11.265C60.923 10.9309 60.0079 10.7706 59.0881 10.7933V10.7975ZM76.3986 11.0178L73.1025 20.0608L69.8038 11.0178H65.6412L71.1042 24.2893H75.099L80.562 11.0178H76.3986ZM87.1594 10.7933C85.8119 10.841 84.5082 11.2841 83.4109 12.0676C82.3135 12.851 81.4709 13.9401 80.9882 15.199C80.5055 16.458 80.4039 17.8312 80.6962 19.1475C80.9884 20.4637 81.6616 21.6649 82.6318 22.6013C83.6019 23.5376 84.8262 24.1678 86.152 24.4132C87.4778 24.6586 88.8466 24.5084 90.0876 23.9813C91.3287 23.4542 92.3872 22.5736 93.1312 21.4491C93.8752 20.3246 94.2719 19.0061 94.2717 17.6577C94.2618 16.7381 94.0693 15.8296 93.7053 14.985C93.3413 14.1405 92.813 13.3766 92.1513 12.738C91.4895 12.0993 90.7075 11.5985 89.8505 11.2646C88.9936 10.9308 88.0788 10.7706 87.1594 10.7933ZM87.1594 21.3938C86.6785 21.3871 86.2038 21.2845 85.7631 21.0921C85.3223 20.8997 84.9244 20.6214 84.5925 20.2733C84.2606 19.9253 84.0015 19.5145 83.8303 19.0651C83.659 18.6158 83.5792 18.1367 83.5953 17.6561C83.5616 17.1755 83.6276 16.6932 83.7891 16.2394C83.9507 15.7856 84.2044 15.3701 84.5342 15.019C84.8641 14.6679 85.263 14.3889 85.7058 14.1993C86.1487 14.0097 86.6259 13.9138 87.1076 13.9175C87.5886 13.9242 88.0633 14.0268 88.5042 14.2193C88.945 14.4117 89.343 14.6901 89.6749 15.0383C90.0067 15.3864 90.2659 15.7972 90.437 16.2467C90.6082 16.6962 90.688 17.1754 90.6717 17.6561C90.7012 18.1356 90.6323 18.6161 90.4691 19.068C90.3059 19.5198 90.0519 19.9335 89.7227 20.2835C89.3936 20.6335 88.9963 20.9124 88.5553 21.1031C88.1144 21.2938 87.639 21.3921 87.1586 21.3921L87.1594 21.3938ZM59.089 21.3938C58.6081 21.3871 58.1334 21.2845 57.6926 21.0921C57.2519 20.8997 56.8539 20.6214 56.5221 20.2733C56.1902 19.9253 55.931 19.5145 55.7598 19.0651C55.5886 18.6158 55.5087 18.1367 55.5249 17.6561C55.4912 17.1753 55.5574 16.6927 55.7192 16.2388C55.8811 15.7848 56.1351 15.3692 56.4652 15.0181C56.7954 14.667 57.1946 14.3879 57.6378 14.1985C58.081 14.0091 58.5586 13.9135 59.0406 13.9175C59.5211 13.9247 59.9953 14.0275 60.4356 14.2201C60.8759 14.4126 61.2735 14.691 61.605 15.0389C61.9365 15.3868 62.1953 15.7973 62.3664 16.2464C62.5375 16.6954 62.6173 17.1741 62.6013 17.6544C62.6311 18.1341 62.5623 18.6148 62.3992 19.0668C62.2361 19.5189 61.9821 19.9328 61.653 20.2829C61.3238 20.6331 60.9264 20.9122 60.4853 21.103C60.0442 21.2937 59.5687 21.3921 59.0881 21.3921L59.089 21.3938ZM26.2308 15.0168C26.5595 14.5894 26.9854 14.2465 27.4732 14.0166C27.9609 13.7866 28.4964 13.6763 29.0353 13.6947C29.637 13.6911 30.2264 13.8654 30.7294 14.1956C31.2323 14.5259 31.6265 14.9974 31.8624 15.551L25.4896 18.1961C25.3052 17.0808 25.5702 15.938 26.2266 15.0176L26.2308 15.0168Z" fill="#D6D6D6"/>
</g>
<defs>
<clipPath id="clip0_15_231">
<rect width="103.5" height="33.3874" fill="white"/>
</clipPath>
</defs>
</svg>
