<svg width="137" height="29" viewBox="0 0 137 29" fill="none" xmlns="http://www.w3.org/2000/svg">
<g clip-path="url(#clip0_14_129)">
<path d="M56.9751 5.80012V23.2001H53.9316V9.54595H53.891L48.4532 23.2001H46.4242L40.8646 9.54595H40.824V23.2001H38.024V5.80012H42.4067L47.4387 18.689H47.5198L52.8359 5.80012H56.9751ZM59.4911 7.12929C59.4911 6.64595 59.6534 6.24317 60.0187 5.92095C60.3839 5.59873 60.7897 5.43762 61.2767 5.43762C61.8042 5.43762 62.2506 5.59873 62.5752 5.92095C62.8999 6.24317 63.1028 6.64595 63.1028 7.12929C63.1028 7.61262 62.9405 8.0154 62.5752 8.33762C62.21 8.65984 61.8042 8.82095 61.2767 8.82095C60.7491 8.82095 60.3433 8.65984 60.0187 8.33762C59.694 7.97512 59.4911 7.57234 59.4911 7.12929ZM62.7781 10.714V23.2001H59.8158V10.714H62.7781ZM71.7464 21.0654C72.1928 21.0654 72.6798 20.9848 73.2073 20.7432C73.7349 20.5418 74.2219 20.2598 74.6682 19.9376V22.6765C74.1813 22.9585 73.6537 23.1598 73.045 23.2807C72.4363 23.4015 71.787 23.4821 71.0566 23.4821C69.1899 23.4821 67.6884 22.9182 66.5521 21.7501C65.3753 20.5821 64.8072 19.0918 64.8072 17.3196C64.8072 15.3057 65.4159 13.6543 66.5927 12.3654C67.7695 11.0765 69.4333 10.4321 71.6247 10.4321C72.1928 10.4321 72.761 10.5126 73.2885 10.6335C73.8566 10.7543 74.303 10.9557 74.6277 11.1168V13.9362C74.1813 13.614 73.6943 13.3321 73.2479 13.171C72.761 13.0098 72.274 12.889 71.787 12.889C70.6102 12.889 69.6768 13.2515 68.9464 14.0168C68.2159 14.7821 67.8913 15.789 67.8913 17.0779C67.8913 18.3265 68.2565 19.3335 68.9464 20.0182C69.6362 20.7029 70.5696 21.0654 71.7464 21.0654ZM83.0684 10.5126C83.3119 10.5126 83.5148 10.5126 83.7177 10.5529C83.9206 10.5932 84.0829 10.6335 84.2047 10.6737V13.6543C84.0424 13.5335 83.8395 13.4126 83.5148 13.3321C83.1902 13.2515 82.8655 13.171 82.4191 13.171C81.6887 13.171 81.08 13.4932 80.593 14.0973C80.106 14.7015 79.822 15.6279 79.822 16.9168V23.2001H76.8596V10.714H79.822V12.6876H79.8626C80.1466 12.0029 80.5524 11.4793 81.08 11.0765C81.6481 10.714 82.2974 10.5126 83.0684 10.5126ZM84.367 17.1585C84.367 15.1043 84.9757 13.4529 86.112 12.2446C87.2888 11.0362 88.912 10.4321 90.9816 10.4321C92.9295 10.4321 94.4716 10.996 95.5672 12.164C96.6629 13.3321 97.231 14.9029 97.231 16.8765C97.231 18.8904 96.6223 20.5015 95.4861 21.7098C94.3092 22.9182 92.7266 23.5223 90.6976 23.5223C88.7497 23.5223 87.2076 22.9585 86.0714 21.8307C84.9351 20.6626 84.367 19.0918 84.367 17.1585ZM87.4511 17.0376C87.4511 18.3265 87.7352 19.3335 88.3439 20.0182C88.9526 20.7029 89.8048 21.0654 90.9005 21.0654C91.9556 21.0654 92.8078 20.7432 93.3759 20.0182C93.944 19.3335 94.2281 18.3265 94.2281 16.9571C94.2281 15.6279 93.944 14.621 93.3759 13.896C92.8078 13.2112 91.9556 12.8487 90.9411 12.8487C89.8454 12.8487 89.0338 13.2112 88.4251 13.9362C87.7352 14.7015 87.4511 15.7085 87.4511 17.0376ZM101.654 14.0168C101.654 14.4196 101.776 14.7821 102.06 15.0237C102.344 15.2654 102.912 15.5473 103.846 15.9098C105.023 16.3932 105.875 16.9168 106.321 17.4807C106.808 18.0848 107.052 18.7696 107.052 19.6154C107.052 20.7835 106.605 21.7098 105.672 22.4348C104.779 23.1598 103.521 23.4821 101.979 23.4821C101.451 23.4821 100.883 23.4015 100.234 23.2807C99.5847 23.1598 99.0572 22.9987 98.6108 22.7973V19.8973C99.1383 20.2598 99.747 20.5821 100.356 20.7835C100.964 20.9848 101.533 21.1057 102.06 21.1057C102.709 21.1057 103.237 21.0251 103.521 20.8237C103.846 20.6223 104.008 20.3404 104.008 19.8973C104.008 19.4946 103.846 19.1723 103.521 18.8501C103.196 18.5682 102.547 18.246 101.654 17.8835C100.559 17.4404 99.7876 16.9168 99.3412 16.3529C98.8948 15.789 98.6514 15.064 98.6514 14.1779C98.6514 13.0501 99.0977 12.1237 99.9905 11.3987C100.883 10.6737 102.06 10.3112 103.48 10.3112C103.927 10.3112 104.414 10.3515 104.941 10.4723C105.469 10.5932 105.956 10.714 106.321 10.8348V13.6946C105.915 13.4529 105.469 13.2112 104.941 13.0098C104.414 12.8085 103.886 12.7279 103.399 12.7279C102.831 12.7279 102.385 12.8487 102.101 13.0501C101.817 13.3321 101.654 13.614 101.654 14.0168ZM108.31 17.1585C108.31 15.1043 108.918 13.4529 110.055 12.2446C111.231 11.0362 112.855 10.4321 114.924 10.4321C116.872 10.4321 118.414 10.996 119.51 12.164C120.605 13.3321 121.174 14.9029 121.174 16.8765C121.174 18.8904 120.565 20.5015 119.429 21.7098C118.252 22.9182 116.669 23.5223 114.64 23.5223C112.692 23.5223 111.15 22.9585 110.014 21.8307C108.918 20.6626 108.31 19.0918 108.31 17.1585ZM111.394 17.0376C111.394 18.3265 111.678 19.3335 112.286 20.0182C112.895 20.7029 113.747 21.0654 114.843 21.0654C115.898 21.0654 116.75 20.7432 117.318 20.0182C117.887 19.3335 118.171 18.3265 118.171 16.9571C118.171 15.6279 117.887 14.621 117.318 13.896C116.75 13.2112 115.898 12.8487 114.884 12.8487C113.788 12.8487 112.976 13.2112 112.368 13.9362C111.718 14.7015 111.394 15.7085 111.394 17.0376ZM131.035 13.1307H126.611V23.2001H123.608V13.1307H121.498V10.714H123.608V8.98206C123.608 7.69317 124.055 6.60568 124.907 5.75984C125.759 4.91401 126.855 4.51123 128.194 4.51123C128.559 4.51123 128.884 4.55151 129.168 4.55151C129.452 4.55151 129.695 4.63206 129.898 4.71262V7.25012C129.817 7.20984 129.614 7.12929 129.371 7.04873C129.127 6.96818 128.843 6.9279 128.519 6.9279C127.91 6.9279 127.423 7.12929 127.098 7.49179C126.774 7.85429 126.611 8.45845 126.611 9.18345V10.6737H131.035V7.85429L133.997 6.96817V10.6737H137V13.0904H133.997V18.9307C133.997 19.696 134.159 20.2196 134.403 20.5418C134.687 20.864 135.133 21.0251 135.742 21.0251C135.904 21.0251 136.107 20.9848 136.351 20.9043C136.594 20.8237 136.797 20.7432 136.959 20.6223V23.039C136.757 23.1598 136.472 23.2404 136.026 23.321C135.58 23.4015 135.174 23.4418 134.727 23.4418C133.469 23.4418 132.536 23.1196 131.927 22.4751C131.319 21.8307 130.994 20.8237 130.994 19.4946L131.035 13.1307Z" fill="#737373"/>
<path d="M13.8786 0H0V13.775H13.8786V0Z" fill="#F25022"/>
<path d="M29.218 0H15.3395V13.775H29.218V0Z" fill="#7FBA00"/>
<path d="M13.8786 15.2251H0V29.0001H13.8786V15.2251Z" fill="#00A4EF"/>
<path d="M29.218 15.2251H15.3395V29.0001H29.218V15.2251Z" fill="#FFB900"/>
</g>
<defs>
<clipPath id="clip0_14_129">
<rect width="137" height="29" fill="white"/>
</clipPath>
</defs>
</svg>
