<svg width="133" height="24" viewBox="0 0 133 24" fill="none" xmlns="http://www.w3.org/2000/svg">
<g clip-path="url(#clip0_15_137)">
<path d="M24.1301 0.000244141H15.6143V8.40099H24.1301V0.000244141Z" fill="white"/>
<path d="M0.0526123 23.7502H8.56833V15.3522L17.0841 23.7502H24.1304V16.8018L7.09895 0.000244141H0.0526123V23.7502Z" fill="white"/>
<path d="M24.1272 16.8024L15.6143 8.40161H32.6429V16.8024H24.1272Z" fill="#C046FF"/>
<path d="M44.2185 9.67477V19.7274H41.1617V5.47852H44.3168L52.4167 15.1514L52.5544 15.3926V5.47852H55.6112V19.7301H52.574L44.3954 9.95747L44.2185 9.67477Z" fill="white"/>
<path d="M66.6583 14.2222H58.4517V10.9822H66.6583V14.2222Z" fill="white"/>
<path d="M79.5405 16.6072H72.1286L70.7351 19.7253H67.3074L74.1008 5.47363H77.4695L84.3644 19.7253H80.9953L79.5405 16.6072ZM75.7722 8.51409L73.303 13.9908H78.3237L75.7722 8.51409Z" fill="white"/>
<path d="M86.401 19.7257V5.47681H93.7734C96.0317 5.47681 97.7118 5.75397 98.8137 6.30553C99.9148 6.85984 100.468 7.82162 100.468 9.19355V9.2933C100.468 10.1858 100.249 10.8731 99.8111 11.3527C99.3725 11.8321 98.6958 12.1731 97.7796 12.3726C98.8159 12.5583 99.5806 12.8909 100.072 13.3732C100.564 13.8526 100.809 14.5788 100.809 15.5517V15.6126C100.809 17.1176 100.224 18.1819 99.0554 18.8C97.8863 19.4208 96.1779 19.7285 93.933 19.7285H86.401V19.7257ZM89.5082 8.01281V11.1697H94.0517C95.035 11.1697 95.8243 11.0754 96.4226 10.8897C97.0209 10.7041 97.3186 10.2828 97.3186 9.63145V9.55107C97.3186 8.88592 97.0605 8.46183 96.5405 8.2817C96.0235 8.1015 95.1581 8.01281 93.9502 8.01281H89.5082ZM89.5082 13.6697V17.0483H93.5347C94.0793 17.0483 94.5567 17.0345 94.97 17.0095C95.3804 16.9818 95.734 16.943 96.0265 16.8903C96.5964 16.7961 96.9926 16.627 97.2119 16.3804C97.4312 16.1337 97.5409 15.8038 97.5409 15.3909V15.3299C97.5409 15.1026 97.5096 14.9031 97.4506 14.7312C97.3917 14.5594 97.3074 14.4125 97.2007 14.2905C96.962 14.0494 96.5658 13.8886 96.0153 13.7999C95.4647 13.7141 94.703 13.6697 93.7338 13.6697H89.5082Z" fill="white"/>
<path d="M103.432 19.7257V5.47681H106.661V16.7102H115.567V19.7285H103.432V19.7257Z" fill="white"/>
<path d="M131.356 19.7257H118.146V5.47681H130.938V8.17639H121.214V11.2141H129.444V13.933H121.214V16.9319H131.356V19.7257Z" fill="white"/>
</g>
<defs>
<clipPath id="clip0_15_137">
<rect width="132.05" height="23.75" fill="white"/>
</clipPath>
</defs>
</svg>
